<svg width="431" height="82" viewBox="0 0 431 82" fill="none" xmlns="http://www.w3.org/2000/svg">
<g clip-path="url(#clip0_10_2)">
<path d="M0 81.29H40.64L0 0V81.29Z" fill="white"/>
<path d="M40.64 81.29H81.29V0L40.64 81.29Z" fill="white"/>
<path d="M121.93 40.64V0H81.29V40.64V81.29H121.93H162.57V40.64H121.93Z" fill="white"/>
<path d="M243.86 0V81.29H162.57L243.86 0Z" fill="white"/>
<path d="M267.74 10.26C268.21 11.67 268.7 13.12 269.2 14.59C269.7 16.07 270.19 17.51 270.66 18.92C271.13 20.33 271.57 21.67 271.97 22.93C272.37 24.19 272.73 25.29 273.03 26.23H273.13C273.43 25.29 273.79 24.19 274.19 22.93C274.59 21.67 275.02 20.33 275.48 18.92C275.93 17.51 276.41 16.06 276.92 14.59C277.42 13.11 277.91 11.67 278.38 10.26C279.49 6.97 280.66 3.56 281.91 0.0299988H289.67L276.67 35.31H268.96L256.1 0.0299988H264.22C265.46 3.56 266.64 6.97 267.75 10.26H267.74Z" fill="white"/>
<path d="M299.54 0.0299988V35.32H291.98V0.0299988H299.54Z" fill="white"/>
<path d="M313.5 10.26C313.97 11.67 314.46 13.12 314.96 14.59C315.46 16.07 315.95 17.51 316.42 18.92C316.89 20.33 317.33 21.67 317.73 22.93C318.13 24.19 318.49 25.29 318.79 26.23H318.89C319.19 25.29 319.55 24.19 319.95 22.93C320.35 21.67 320.78 20.33 321.24 18.92C321.69 17.51 322.17 16.06 322.68 14.59C323.18 13.11 323.67 11.67 324.14 10.26C325.25 6.97 326.42 3.56 327.67 0.0299988H335.43L322.43 35.31H314.72L301.86 0.0299988H309.97C311.21 3.56 312.39 6.97 313.5 10.26Z" fill="white"/>
<path d="M353.27 35.32L350.45 27.15H337.8L334.98 35.32H327.57L340.27 0.0299988H348.39L361.09 35.31H353.28L353.27 35.32ZM343.69 9.51C343.52 10.01 343.34 10.59 343.14 11.25C342.94 11.91 342.71 12.6 342.46 13.34C342.21 14.08 341.96 14.82 341.73 15.56L339.86 21.15H348.38C347.67 19.13 347.04 17.27 346.46 15.56C346.19 14.82 345.94 14.08 345.7 13.34C345.46 12.6 345.25 11.9 345.04 11.25C344.84 10.59 344.65 10.01 344.49 9.51C344.33 9.01 344.2 8.6 344.14 8.3H344.04C343.97 8.6 343.86 9.01 343.69 9.51V9.51Z" fill="white"/>
<path d="M379.84 0.0299988V29.01H395.26V35.31H372.28V0.0299988H379.84Z" fill="white"/>
<path d="M422.63 35.32L419.81 27.15H407.16L404.34 35.32H396.93L409.62 0.0299988H417.74L430.44 35.31H422.63V35.32ZM413.05 9.51C412.88 10.01 412.7 10.59 412.5 11.25C412.3 11.91 412.07 12.6 411.82 13.34C411.57 14.08 411.32 14.82 411.09 15.56L409.22 21.15H417.74C417.03 19.13 416.4 17.27 415.82 15.56C415.55 14.82 415.3 14.08 415.06 13.34C414.82 12.6 414.61 11.9 414.4 11.25C414.2 10.59 414.01 10.01 413.85 9.51C413.68 9.01 413.56 8.6 413.5 8.3H413.4C413.33 8.6 413.22 9.01 413.05 9.51V9.51Z" fill="white"/>
<path d="M285.23 46.01V51.81L266.73 75H285.08V81.3H257.21V75.55L275.81 52.31H257.82V46.01H285.24H285.23Z" fill="white"/>
<path d="M286.92 55.97C287.74 53.7 288.9 51.78 290.4 50.2C291.9 48.62 293.7 47.41 295.82 46.57C297.94 45.73 300.29 45.31 302.88 45.31C305.47 45.31 307.82 45.73 309.94 46.57C312.06 47.41 313.86 48.62 315.36 50.2C316.86 51.78 318.01 53.7 318.84 55.97C319.66 58.24 320.07 60.8 320.07 63.66C320.07 66.52 319.66 69.08 318.84 71.35C318.02 73.62 316.86 75.54 315.36 77.12C313.86 78.7 312.06 79.91 309.94 80.75C307.82 81.59 305.47 82.01 302.88 82.01C300.29 82.01 297.94 81.59 295.82 80.75C293.7 79.91 291.9 78.7 290.4 77.12C288.9 75.54 287.75 73.62 286.92 71.35C286.1 69.08 285.69 66.52 285.69 63.66C285.69 60.8 286.1 58.24 286.92 55.97ZM294.08 68.57C294.47 70.07 295.05 71.34 295.82 72.4C296.59 73.46 297.57 74.28 298.74 74.87C299.91 75.46 301.29 75.75 302.87 75.75C304.45 75.75 305.83 75.46 307 74.87C308.18 74.28 309.15 73.46 309.92 72.4C310.69 71.34 311.27 70.06 311.66 68.57C312.05 67.07 312.24 65.44 312.24 63.66C312.24 61.88 312.05 60.24 311.66 58.75C311.27 57.25 310.69 55.98 309.92 54.92C309.15 53.86 308.17 53.04 307 52.45C305.82 51.86 304.45 51.57 302.87 51.57C301.29 51.57 299.91 51.86 298.74 52.45C297.57 53.04 296.59 53.86 295.82 54.92C295.05 55.98 294.47 57.26 294.08 58.75C293.69 60.24 293.5 61.88 293.5 63.66C293.5 65.44 293.69 67.08 294.08 68.57Z" fill="white"/>
<path d="M324.11 55.97C324.93 53.7 326.09 51.78 327.59 50.2C329.09 48.62 330.89 47.41 333.01 46.57C335.13 45.73 337.48 45.31 340.07 45.31C342.66 45.31 345.01 45.73 347.13 46.57C349.25 47.41 351.05 48.62 352.55 50.2C354.05 51.78 355.2 53.7 356.03 55.97C356.85 58.24 357.26 60.8 357.26 63.66C357.26 66.52 356.85 69.08 356.03 71.35C355.21 73.62 354.05 75.54 352.55 77.12C351.05 78.7 349.25 79.91 347.13 80.75C345.01 81.59 342.66 82.01 340.07 82.01C337.48 82.01 335.13 81.59 333.01 80.75C330.89 79.91 329.09 78.7 327.59 77.12C326.09 75.54 324.94 73.62 324.11 71.35C323.29 69.08 322.88 66.52 322.88 63.66C322.88 60.8 323.29 58.24 324.11 55.97ZM331.27 68.57C331.66 70.07 332.24 71.34 333.01 72.4C333.78 73.46 334.76 74.28 335.93 74.87C337.11 75.46 338.48 75.75 340.06 75.75C341.64 75.75 343.02 75.46 344.19 74.87C345.37 74.28 346.34 73.46 347.11 72.4C347.88 71.34 348.46 70.06 348.85 68.57C349.24 67.07 349.43 65.44 349.43 63.66C349.43 61.88 349.24 60.24 348.85 58.75C348.46 57.25 347.88 55.98 347.11 54.92C346.34 53.86 345.36 53.04 344.19 52.45C343.01 51.86 341.64 51.57 340.06 51.57C338.48 51.57 337.1 51.86 335.93 52.45C334.75 53.04 333.78 53.86 333.01 54.92C332.24 55.98 331.66 57.26 331.27 58.75C330.88 60.24 330.69 61.88 330.69 63.66C330.69 65.44 330.88 67.08 331.27 68.57Z" fill="white"/>
<path d="M374.37 77.94C373.92 76.61 373.43 75.18 372.91 73.66C372.39 72.13 371.86 70.54 371.32 68.9C370.78 67.25 370.25 65.65 369.73 64.09C369.21 62.53 368.72 61.04 368.27 59.63C367.82 58.22 367.44 56.99 367.14 55.95H366.99V81.3H360.03V46.01H370.61C372.05 50.31 373.37 54.26 374.54 57.85C375.04 59.4 375.55 60.93 376.05 62.46C376.55 63.99 377.02 65.41 377.46 66.72C377.9 68.03 378.28 69.17 378.59 70.15C378.91 71.12 379.14 71.83 379.27 72.27C379.4 71.83 379.62 71.13 379.93 70.15C380.23 69.18 380.59 68.03 380.99 66.72C381.39 65.41 381.84 63.99 382.33 62.46C382.82 60.93 383.31 59.39 383.82 57.85C384.96 54.25 386.24 50.31 387.65 46.01H398.18V81.29H391.22V55.94H391.07C390.73 56.98 390.32 58.23 389.84 59.7C389.35 61.16 388.84 62.72 388.3 64.36C387.76 66 387.21 67.68 386.64 69.38C386.07 71.08 385.53 72.69 385.03 74.22C384.53 75.75 384.06 77.14 383.62 78.38C383.18 79.62 382.85 80.6 382.61 81.3H375.55C375.21 80.39 374.82 79.28 374.37 77.95V77.94Z" fill="white"/>
</g>
<defs>
<clipPath id="clip0_10_2">
<rect width="430.44" height="82" fill="white"/>
</clipPath>
</defs>
</svg>
