<?xml version="1.0" encoding="UTF-8"?><svg id="Layer_1" xmlns="http://www.w3.org/2000/svg" viewBox="0 0 270.53 92.2"><defs><style>.cls-1{fill:#fff;}.cls-2{stroke:#000;stroke-miterlimit:10;stroke-width:1.05px;}</style></defs><path class="cls-2" d="M.52,.52H246.75c12.84,0,23.26,10.42,23.26,23.26v44.64c0,12.84-10.42,23.26-23.26,23.26H23.78c-12.84,0-23.26-10.42-23.26-23.26V.52H.52Z"/><g><path class="cls-1" d="M55.97,35.38c0,4.08,.51,5.03,3.49,5.03v1.21h-10.62v-1.21c2.98,0,3.49-.96,3.49-5.03V17.6h-.11l-9.11,24.03h-1.4l-9.04-24.17h-.11v17.93c0,4.08,.48,5.03,3.42,5.03v1.21h-8.56v-1.21c2.98,0,3.45-.96,3.45-5.03v-14.4c0-4.04-.48-5.03-3.45-5.03v-1.21h7.93l8.05,21.38,8.08-21.38h7.97v1.21c-2.98,0-3.49,.99-3.49,5.03v14.4Z"/><path class="cls-1" d="M59.06,32.95c0-4.78,3.16-9.7,8.34-9.7s8.16,5,8.16,9.66-3.49,9.11-8.38,9.11-8.12-4.56-8.12-9.07Zm12.78-.73c0-2.68-.85-7.75-4.45-7.75s-4.63,4.85-4.63,7.68c0,2.61,.85,8.67,4.41,8.67,3.82,0,4.67-5.77,4.67-8.6Z"/><path class="cls-1" d="M87.57,29.1c.26-.73,.73-1.76,.73-2.53,0-1.4-1.21-1.84-2.42-1.84v-1.07h7.27v1.07c-.55,.04-1.14,.04-1.58,.4-.7,.62-1.43,2.61-1.76,3.49l-5.18,13.01h-1.76l-5.55-14.07c-.55-1.32-.92-2.79-2.61-2.83v-1.07h8.16v1.07c-.96,0-2.35,.15-2.35,1.4,0,.55,.37,1.51,.55,1.98l3.49,8.96,3.01-7.97Z"/><path class="cls-1" d="M99.55,36.59c0,3.45,0,3.67,2.5,3.97v1.07h-8.23v-1.1c2.5-.29,2.5-.55,2.5-3.97v-7.86c-.11-1.95-.15-2.64-2.39-2.64v-.88l5.62-2.17v13.59Zm-2.09-17.38c-1.36,0-2.46-1.07-2.46-2.42s1.07-2.46,2.42-2.46,2.46,1.1,2.46,2.46-1.1,2.42-2.42,2.42Z"/><path class="cls-1" d="M108.84,36.59c0,3.45,0,3.67,2.46,3.97v1.07h-8.19v-1.07c2.5-.29,2.5-.51,2.5-3.97v-7.9c-.11-1.95-.15-2.64-2.39-2.64v-.88l5.62-2.17v3.12c1.4-1.51,3.71-2.87,5.77-2.87,1.29,0,2.57,.51,3.49,1.43,1.21,1.36,1.25,3.05,1.25,4.78v7.13c0,3.45,0,3.67,2.46,3.97v1.07h-8.23v-1.07c2.54-.29,2.54-.51,2.54-3.97v-6.43c0-2.2-.15-4.96-3.05-4.96-1.62,0-3.12,1.32-4.22,2.42v8.96Z"/><path class="cls-1" d="M132.8,39.01c2.46,.62,6.83,1.21,6.83,4.56,0,4.04-5.62,4.52-8.71,4.52-2.39,0-9.11-.33-9.11-3.67,0-2.61,3.71-3.23,5.55-3.86-1.07-.4-3.82-1.03-3.82-2.61s1.98-2.39,3.27-2.68c-1.98-1.14-3.12-3.27-3.12-5.58,0-4,3.67-6.43,7.38-6.43,1.73,0,3.6,.51,4.92,1.76,.96-.96,2.31-1.95,3.78-1.95,1.1,0,1.87,.88,1.87,1.98,0,.88-.62,1.76-1.51,1.76-1.36,0-1.51-1.47-2.79-1.47-.26,0-.48,.15-.7,.33,1.03,.99,1.47,2.83,1.47,4.22,0,3.89-3.67,6.43-7.2,6.43-.92,0-2.2-.18-3.05-.55-.4,.15-1.07,.37-1.07,.92,0,.99,2.42,1.43,3.09,1.62l2.9,.7Zm-3.56,1.98c-1.51,.48-4.19,1.29-4.19,3.27,0,2.42,4.41,2.61,6.28,2.61,1.65,0,5.55-.22,5.55-2.31,0-1.36-1.65-1.84-2.68-2.17l-4.96-1.4Zm1.76-16.53c-2.79,0-3.82,3.16-3.82,5.47s1.1,5.18,3.89,5.18,3.56-2.79,3.56-5.07c0-2.13-.96-5.58-3.64-5.58Z"/><path class="cls-1" d="M158.55,35.38c0,4.08,.51,5.03,3.49,5.03v1.21h-10.58v-1.21c2.94,0,3.45-.96,3.45-5.03v-14.4c0-4.04-.51-5.03-3.45-5.03v-1.21h10.58v1.21c-2.98,0-3.49,.99-3.49,5.03v14.4Z"/><path class="cls-1" d="M169.02,36.59c0,3.45,0,3.67,2.5,3.97v1.07h-8.23v-1.07c2.5-.29,2.5-.51,2.5-3.97v-7.9c-.11-1.95-.15-2.64-2.39-2.64v-.88l5.62-2.17v3.64c1.43-1.87,3.67-3.38,6.1-3.38,2.09,0,3.67,1.47,4.37,3.38,1.76-1.73,3.67-3.38,6.28-3.38,1.58,0,3.09,.55,3.93,2.02,.81,1.4,.77,3.42,.77,5.07v6.25c0,3.45,0,3.67,2.46,3.97v1.07h-8.19v-1.07c2.5-.29,2.5-.51,2.5-3.97v-6.58c0-1.98,.04-4.81-2.68-4.81-1.91,0-3.6,1.36-4.81,2.68v8.71c0,3.45,0,3.67,2.5,3.97v1.07h-8.19v-1.07c2.46-.29,2.46-.51,2.46-3.97v-6.58c0-1.98-.07-4.81-2.79-4.81-1.91,0-3.6,1.36-4.7,2.68v8.71Z"/><path class="cls-1" d="M203.74,28.36c0-1.8-.37-3.89-2.57-3.89-1.84,0-2.61,1.21-3.01,2.79-.33,1.14-.81,1.84-2.13,1.84-1.03,0-1.73-.62-1.73-1.62,0-3.05,4.3-4.22,6.69-4.22,1.54,0,3.42,.26,4.67,1.29,1.32,1.1,1.32,2.65,1.32,4.19v8.38c0,.88,0,2.5,1.1,2.5,.62,0,1.07-.44,1.51-.92l.48,.77c-.92,1.36-2.02,2.57-3.75,2.57-1.51,0-2.35-1.18-2.5-2.57-1.69,1.36-3.67,2.57-5.88,2.57-2.57,0-4.34-1.76-4.34-4.37,0-4.89,6.39-6.13,10.14-6.87v-2.42Zm0,3.64c-2.61,.44-6.65,2.2-6.65,5.25,0,1.73,1.21,2.83,2.68,2.83,1.36,0,3.05-1.07,3.97-2.09v-5.99Z"/><path class="cls-1" d="M219.94,39.01c2.46,.62,6.83,1.21,6.83,4.56,0,4.04-5.62,4.52-8.71,4.52-2.39,0-9.11-.33-9.11-3.67,0-2.61,3.71-3.23,5.55-3.86-1.07-.4-3.82-1.03-3.82-2.61s1.98-2.39,3.27-2.68c-1.98-1.14-3.12-3.27-3.12-5.58,0-4,3.67-6.43,7.38-6.43,1.73,0,3.6,.51,4.92,1.76,.96-.96,2.31-1.95,3.78-1.95,1.1,0,1.87,.88,1.87,1.98,0,.88-.62,1.76-1.51,1.76-1.36,0-1.51-1.47-2.79-1.47-.26,0-.48,.15-.7,.33,1.03,.99,1.47,2.83,1.47,4.22,0,3.89-3.67,6.43-7.2,6.43-.92,0-2.2-.18-3.05-.55-.4,.15-1.07,.37-1.07,.92,0,.99,2.42,1.43,3.09,1.62l2.9,.7Zm-3.56,1.98c-1.51,.48-4.19,1.29-4.19,3.27,0,2.42,4.41,2.61,6.28,2.61,1.65,0,5.55-.22,5.55-2.31,0-1.36-1.65-1.84-2.68-2.17l-4.96-1.4Zm1.76-16.53c-2.79,0-3.82,3.16-3.82,5.47s1.1,5.18,3.89,5.18,3.56-2.79,3.56-5.07c0-2.13-.96-5.58-3.64-5.58Z"/><path class="cls-1" d="M233.5,31.52c0,3.6,1.07,8.93,5.66,8.93,2.46,0,4.59-1.36,6.02-3.34l.62,.59c-1.54,2.53-4.11,4.34-7.13,4.34-5.14,0-8.89-4.19-8.89-9.22,0-4.7,3.27-9.55,8.41-9.55,4.59,0,7.75,3.93,7.75,8.27h-12.45Zm8.74-1.4c.22-2.53-.88-5.66-4.08-5.66s-4.41,3.16-4.48,5.66h8.56Z"/><path class="cls-1" d="M55.97,68.03c0,4.08,.51,5.03,3.49,5.03v1.21h-10.62v-1.21c2.98,0,3.49-.96,3.49-5.03v-17.78h-.11l-9.11,24.03h-1.4l-9.04-24.17h-.11v17.93c0,4.08,.48,5.03,3.42,5.03v1.21h-8.56v-1.21c2.98,0,3.45-.96,3.45-5.03v-14.4c0-4.04-.48-5.03-3.45-5.03v-1.21h7.93l8.05,21.38,8.08-21.38h7.97v1.21c-2.98,0-3.49,.99-3.49,5.03v14.4Z"/><path class="cls-1" d="M70.56,61.02c0-1.8-.37-3.89-2.57-3.89-1.84,0-2.61,1.21-3.01,2.79-.33,1.14-.81,1.84-2.13,1.84-1.03,0-1.73-.62-1.73-1.62,0-3.05,4.3-4.22,6.69-4.22,1.54,0,3.42,.26,4.67,1.29,1.32,1.1,1.32,2.65,1.32,4.19v8.38c0,.88,0,2.5,1.1,2.5,.62,0,1.07-.44,1.51-.92l.48,.77c-.92,1.36-2.02,2.57-3.75,2.57-1.51,0-2.35-1.18-2.5-2.57-1.69,1.36-3.67,2.57-5.88,2.57-2.57,0-4.34-1.76-4.34-4.37,0-4.89,6.39-6.13,10.14-6.87v-2.42Zm0,3.64c-2.61,.44-6.65,2.2-6.65,5.25,0,1.73,1.21,2.83,2.68,2.83,1.36,0,3.05-1.07,3.97-2.09v-5.99Z"/><path class="cls-1" d="M87.39,61.17c.59-.59,1.65-1.54,1.65-2.5,0-.88-.62-1.25-1.87-1.29v-1.07h8.56v1.07c-2.42,.07-3.71,1.36-5.36,2.9l-2.87,2.72,5.22,7.49c1.03,1.51,1.91,2.76,3.89,2.72v1.07h-8.78v-1.07c1.03,0,1.98-.18,1.98-1.07,0-.66-.81-1.69-1.14-2.24l-3.42-4.81-2.42,2.28v1.87c0,3.45,0,3.67,2.53,3.97v1.07h-8.27v-1.07c2.5-.29,2.5-.51,2.5-3.97v-16.75c0-3.2-.51-3.05-3.12-3.23v-1.07l6.36-2.09v19.65l4.56-4.59Z"/><path class="cls-1" d="M99.58,64.18c0,3.6,1.07,8.93,5.66,8.93,2.46,0,4.59-1.36,6.02-3.34l.62,.59c-1.54,2.53-4.11,4.34-7.13,4.34-5.14,0-8.89-4.19-8.89-9.22,0-4.7,3.27-9.55,8.41-9.55,4.59,0,7.75,3.93,7.75,8.27h-12.45Zm8.74-1.4c.22-2.53-.88-5.66-4.08-5.66s-4.41,3.16-4.48,5.66h8.56Z"/><path class="cls-1" d="M118.39,69.25c0,3.45,0,3.67,2.46,3.97v1.07h-8.12v-1.07c2.42-.29,2.42-.51,2.42-3.97v-7.9c-.11-1.95-.15-2.64-2.39-2.64v-.88l5.62-2.17v4.34c1.4-1.73,3.6-4.34,6.02-4.34,1.21,0,2.28,.85,2.28,2.13,0,1.14-.77,2.06-1.98,2.06-1.29,0-1.76-.96-2.94-.96-1.29,0-2.76,1.69-3.38,2.72v7.64Z"/><path class="cls-1" d="M140.29,61.64l-.88,.48c-1.8-2.31-4-5-6.98-5-1.43,0-2.9,.99-2.9,2.5,0,4.48,11.54,2.79,11.54,9.51,0,3.16-3.05,5.55-5.99,5.55-.92,0-1.58-.26-2.42-.51-.44-.15-.88-.33-1.36-.33-.77,0-1.51,.33-2.13,.85l-2.28-6.25,.81-.4c1.4,2.31,4.85,5.44,7.6,5.44,1.69,0,3.23-1.29,3.23-3.01,0-4.74-11.43-2.68-11.43-9.33,0-3.12,2.87-5.22,5.77-5.22,1.32,0,2.61,.59,3.64,.59,.7,0,1.21-.33,1.65-.85l2.13,5.99Z"/></g></svg>